<svg width="25" height="25" viewBox="0 0 25 25" fill="none" xmlns="http://www.w3.org/2000/svg">
<path d="M22.6562 2.08333C22.8635 2.08333 23.0622 2.19308 23.2087 2.38843C23.3552 2.58378 23.4375 2.84873 23.4375 3.125V21.875C23.4375 22.1513 23.3552 22.4162 23.2087 22.6116C23.0622 22.8069 22.8635 22.9167 22.6562 22.9167H2.34375C2.13655 22.9167 1.93784 22.8069 1.79132 22.6116C1.64481 22.4162 1.5625 22.1513 1.5625 21.875V3.125C1.5625 2.84873 1.64481 2.58378 1.79132 2.38843C1.93784 2.19308 2.13655 2.08333 2.34375 2.08333H22.6562ZM2.34375 0C1.72215 0 1.12601 0.32924 0.686468 0.915291C0.24693 1.50134 0 2.2962 0 3.125L0 21.875C0 22.7038 0.24693 23.4987 0.686468 24.0847C1.12601 24.6708 1.72215 25 2.34375 25H22.6562C23.2779 25 23.874 24.6708 24.3135 24.0847C24.7531 23.4987 25 22.7038 25 21.875V3.125C25 2.2962 24.7531 1.50134 24.3135 0.915291C23.874 0.32924 23.2779 0 22.6562 0H2.34375Z" fill="#3DA5D9"/>
<path d="M10.9375 7.29167C10.9375 7.0154 11.0198 6.75045 11.1663 6.5551C11.3128 6.35975 11.5115 6.25 11.7187 6.25H19.5312C19.7384 6.25 19.9371 6.35975 20.0837 6.5551C20.2302 6.75045 20.3125 7.0154 20.3125 7.29167C20.3125 7.56793 20.2302 7.83289 20.0837 8.02824C19.9371 8.22359 19.7384 8.33333 19.5312 8.33333H11.7187C11.5115 8.33333 11.3128 8.22359 11.1663 8.02824C11.0198 7.83289 10.9375 7.56793 10.9375 7.29167ZM8.59998 5.5125C8.67274 5.60926 8.73046 5.72421 8.76984 5.85076C8.80923 5.97732 8.8295 6.11299 8.8295 6.25C8.8295 6.38702 8.80923 6.52269 8.76984 6.64924C8.73046 6.77579 8.67274 6.89074 8.59998 6.9875L6.25623 10.1125C6.18366 10.2095 6.09745 10.2865 6.00253 10.339C5.90762 10.3915 5.80587 10.4185 5.7031 10.4185C5.60034 10.4185 5.49859 10.3915 5.40368 10.339C5.30876 10.2865 5.22255 10.2095 5.14998 10.1125L4.36873 9.07083C4.29609 8.97398 4.23847 8.85901 4.19916 8.73247C4.15985 8.60593 4.13962 8.4703 4.13962 8.33333C4.13962 8.05672 4.22203 7.79143 4.36873 7.59583C4.51543 7.40024 4.71439 7.29035 4.92186 7.29035C5.12932 7.29035 5.32828 7.40024 5.47498 7.59583L5.7031 7.90208L7.49373 5.5125C7.5663 5.41549 7.65251 5.33853 7.74743 5.28602C7.84234 5.2335 7.94409 5.20647 8.04685 5.20647C8.14962 5.20647 8.25137 5.2335 8.34628 5.28602C8.4412 5.33853 8.52741 5.41549 8.59998 5.5125ZM10.9375 15.625C10.9375 15.3487 11.0198 15.0838 11.1663 14.8884C11.3128 14.6931 11.5115 14.5833 11.7187 14.5833H19.5312C19.7384 14.5833 19.9371 14.6931 20.0837 14.8884C20.2302 15.0838 20.3125 15.3487 20.3125 15.625C20.3125 15.9013 20.2302 16.1662 20.0837 16.3616C19.9371 16.5569 19.7384 16.6667 19.5312 16.6667H11.7187C11.5115 16.6667 11.3128 16.5569 11.1663 16.3616C11.0198 16.1662 10.9375 15.9013 10.9375 15.625ZM8.59998 13.8458C8.67274 13.9426 8.73046 14.0575 8.76984 14.1841C8.80923 14.3106 8.8295 14.4463 8.8295 14.5833C8.8295 14.7203 8.80923 14.856 8.76984 14.9826C8.73046 15.1091 8.67274 15.2241 8.59998 15.3208L6.25623 18.4458C6.18366 18.5428 6.09745 18.6198 6.00253 18.6723C5.90762 18.7248 5.80587 18.7519 5.7031 18.7519C5.60034 18.7519 5.49859 18.7248 5.40368 18.6723C5.30876 18.6198 5.22255 18.5428 5.14998 18.4458L4.36873 17.4042C4.29609 17.3073 4.23847 17.1923 4.19916 17.0658C4.15985 16.9393 4.13962 16.8036 4.13962 16.6667C4.13962 16.5297 4.15985 16.3941 4.19916 16.2675C4.23847 16.141 4.29609 16.026 4.36873 15.9292C4.44137 15.8323 4.5276 15.7555 4.62251 15.7031C4.71741 15.6507 4.81913 15.6237 4.92186 15.6237C5.02458 15.6237 5.1263 15.6507 5.2212 15.7031C5.31611 15.7555 5.40234 15.8323 5.47498 15.9292L5.7031 16.2354L7.49373 13.8458C7.5663 13.7488 7.65251 13.6719 7.74743 13.6193C7.84234 13.5668 7.94409 13.5398 8.04685 13.5398C8.14962 13.5398 8.25137 13.5668 8.34628 13.6193C8.4412 13.6719 8.52741 13.7488 8.59998 13.8458Z" fill="#3DA5D9"/>
</svg>
