<svg width="40" height="41" viewBox="0 0 40 41" fill="none" xmlns="http://www.w3.org/2000/svg">
<path d="M39.9999 6.23779C40.005 5.14101 39.6733 4.06413 39.0413 3.12506C38.4092 2.186 37.5011 1.42097 36.4164 0.91375C35.3317 0.406529 34.1122 0.176677 32.8915 0.249363C31.6708 0.32205 30.496 0.694471 29.4957 1.32585C28.4953 1.95722 27.708 2.8232 27.22 3.82896C26.732 4.83472 26.5621 5.94147 26.729 7.02802C26.8958 8.11457 27.3929 9.13901 28.1658 9.98918C28.9387 10.8393 29.9577 11.4824 31.1111 11.848V18.1915H8.88889V11.848C10.3716 11.3781 11.6212 10.4533 12.417 9.23721C13.2127 8.0211 13.5033 6.59195 13.2373 5.20234C12.9714 3.81274 12.1661 2.55216 10.9637 1.64339C9.76131 0.734634 8.2393 0.236206 6.66667 0.236206C5.09403 0.236206 3.57203 0.734634 2.36965 1.64339C1.16728 2.55216 0.361959 3.81274 0.0960232 5.20234C-0.169913 6.59195 0.120661 8.0211 0.916387 9.23721C1.71211 10.4533 2.96176 11.3781 4.44445 11.848V28.5194C2.96176 28.9894 1.71211 29.9142 0.916387 31.1303C0.120661 32.3464 -0.169913 33.7755 0.0960232 35.1651C0.361959 36.5547 1.16728 37.8153 2.36965 38.7241C3.57203 39.6328 5.09403 40.1313 6.66667 40.1313C8.2393 40.1313 9.76131 39.6328 10.9637 38.7241C12.1661 37.8153 12.9714 36.5547 13.2373 35.1651C13.5033 33.7755 13.2127 32.3464 12.417 31.1303C11.6212 29.9142 10.3716 28.9894 8.88889 28.5194V22.176H31.1111C32.2898 22.176 33.4203 21.7562 34.2538 21.009C35.0873 20.2617 35.5555 19.2482 35.5555 18.1915V11.848C36.8525 11.4397 37.9763 10.6809 38.7723 9.6762C39.5682 8.67145 39.9972 7.47017 39.9999 6.23779Z" fill="white"/>
</svg>
