<svg width="50" height="61" viewBox="0 0 50 61" fill="none" xmlns="http://www.w3.org/2000/svg">
<path d="M9.375 0.262451H40.625C43.1114 0.262451 45.496 1.20817 47.2541 2.89157C49.0123 4.57497 50 6.85814 50 9.23883V51.1286C50 53.5093 49.0123 55.7924 47.2541 57.4758C45.496 59.1592 43.1114 60.1049 40.625 60.1049H9.375C6.8886 60.1049 4.50403 59.1592 2.74587 57.4758C0.987721 55.7924 0 53.5093 0 51.1286V9.23883C0 6.85814 0.987721 4.57497 2.74587 2.89157C4.50403 1.20817 6.8886 0.262451 9.375 0.262451ZM9.375 6.2467C8.5462 6.2467 7.75134 6.56194 7.16529 7.12308C6.57924 7.68421 6.25 8.44527 6.25 9.23883V51.1286C6.25 51.9221 6.57924 52.6832 7.16529 53.2443C7.75134 53.8055 8.5462 54.1207 9.375 54.1207H40.625C41.4538 54.1207 42.2487 53.8055 42.8347 53.2443C43.4208 52.6832 43.75 51.9221 43.75 51.1286V9.23883C43.75 8.44527 43.4208 7.68421 42.8347 7.12308C42.2487 6.56194 41.4538 6.2467 40.625 6.2467H9.375ZM15.625 45.1443H21.875C22.7038 45.1443 23.4987 45.4596 24.0847 46.0207C24.6708 46.5818 25 47.3429 25 48.1365C25 48.93 24.6708 49.6911 24.0847 50.2522C23.4987 50.8133 22.7038 51.1286 21.875 51.1286H15.625C14.7962 51.1286 14.0013 50.8133 13.4153 50.2522C12.8292 49.6911 12.5 48.93 12.5 48.1365C12.5 47.3429 12.8292 46.5818 13.4153 46.0207C14.0013 45.4596 14.7962 45.1443 15.625 45.1443ZM34.375 9.23883C35.2038 9.23883 35.9987 9.55407 36.5847 10.1152C37.1708 10.6763 37.5 11.4374 37.5 12.231C37.5 13.0245 37.1708 13.7856 36.5847 14.3467C35.9987 14.9078 35.2038 15.2231 34.375 15.2231C33.5462 15.2231 32.7513 14.9078 32.1653 14.3467C31.5792 13.7856 31.25 13.0245 31.25 12.231C31.25 11.4374 31.5792 10.6763 32.1653 10.1152C32.7513 9.55407 33.5462 9.23883 34.375 9.23883ZM34.375 18.2152C35.2038 18.2152 35.9987 18.5304 36.5847 19.0916C37.1708 19.6527 37.5 20.4138 37.5 21.2073C37.5 22.0009 37.1708 22.7619 36.5847 23.3231C35.9987 23.8842 35.2038 24.1995 34.375 24.1995C33.5462 24.1995 32.7513 23.8842 32.1653 23.3231C31.5792 22.7619 31.25 22.0009 31.25 21.2073C31.25 20.4138 31.5792 19.6527 32.1653 19.0916C32.7513 18.5304 33.5462 18.2152 34.375 18.2152ZM15.625 36.168H34.375C35.2038 36.168 35.9987 36.4832 36.5847 37.0443C37.1708 37.6055 37.5 38.3665 37.5 39.1601C37.5 39.9536 37.1708 40.7147 36.5847 41.2758C35.9987 41.837 35.2038 42.1522 34.375 42.1522H15.625C14.7962 42.1522 14.0013 41.837 13.4153 41.2758C12.8292 40.7147 12.5 39.9536 12.5 39.1601C12.5 38.3665 12.8292 37.6055 13.4153 37.0443C14.0013 36.4832 14.7962 36.168 15.625 36.168ZM15.625 27.1916H34.375C35.2038 27.1916 35.9987 27.5068 36.5847 28.0679C37.1708 28.6291 37.5 29.3901 37.5 30.1837C37.5 30.9773 37.1708 31.7383 36.5847 32.2995C35.9987 32.8606 35.2038 33.1758 34.375 33.1758H15.625C14.7962 33.1758 14.0013 32.8606 13.4153 32.2995C12.8292 31.7383 12.5 30.9773 12.5 30.1837C12.5 29.3901 12.8292 28.6291 13.4153 28.0679C14.0013 27.5068 14.7962 27.1916 15.625 27.1916ZM17.1875 9.23883H23.4375C24.6807 9.23883 25.873 9.71169 26.7521 10.5534C27.6311 11.3951 28.125 12.5367 28.125 13.727V19.7113C28.125 20.9016 27.6311 22.0432 26.7521 22.8849C25.873 23.7266 24.6807 24.1995 23.4375 24.1995H17.1875C15.9443 24.1995 14.752 23.7266 13.8729 22.8849C12.9939 22.0432 12.5 20.9016 12.5 19.7113V13.727C12.5 12.5367 12.9939 11.3951 13.8729 10.5534C14.752 9.71169 15.9443 9.23883 17.1875 9.23883Z" fill="white"/>
</svg>
