<svg width="20" height="41" viewBox="0 0 20 41" fill="none" xmlns="http://www.w3.org/2000/svg">
<path d="M19.4454 13.77L1.11981 15.0292L0.460617 16.6998L4.07027 17.0613C6.41608 17.368 6.88434 17.8318 6.36608 19.1159L0.460617 34.3334C-1.08508 38.268 1.3062 40.1181 6.9298 40.1181C11.2896 40.1181 16.3494 39.0135 18.6452 37.495L19.3499 35.6698C17.7587 36.4428 15.4129 36.752 13.8672 36.752C11.6623 36.752 10.8668 35.9042 11.4305 34.4107L19.4454 13.77ZM20 4.61159C20 5.18789 19.793 5.75855 19.3909 6.29098C18.9888 6.82341 18.3995 7.30719 17.6565 7.7147C16.9135 8.1222 16.0315 8.44545 15.0607 8.66599C14.0899 8.88653 13.0495 9.00004 11.9988 9.00004C10.948 9.00004 9.90758 8.88653 8.93682 8.66599C7.96607 8.44545 7.08402 8.1222 6.34104 7.7147C5.59805 7.30719 5.00868 6.82341 4.60658 6.29098C4.20448 5.75855 3.99753 5.18789 3.99753 4.61159C3.99753 3.4477 4.84051 2.33149 6.34104 1.50849C7.84156 0.685498 9.8767 0.223145 11.9988 0.223145C14.1208 0.223145 16.156 0.685498 17.6565 1.50849C19.157 2.33149 20 3.4477 20 4.61159Z" fill="white"/>
</svg>
