<svg width="60" height="61" viewBox="0 0 60 61" fill="none" xmlns="http://www.w3.org/2000/svg">
<path fill-rule="evenodd" clip-rule="evenodd" d="M0 30.1837C0 22.2481 3.16071 14.6375 8.7868 9.02618C14.4129 3.41486 22.0435 0.262451 30 0.262451C37.9565 0.262451 45.5871 3.41486 51.2132 9.02618C56.8393 14.6375 60 22.2481 60 30.1837C60 38.1193 56.8393 45.7299 51.2132 51.3412C45.5871 56.9525 37.9565 60.1049 30 60.1049C22.0435 60.1049 14.4129 56.9525 8.7868 51.3412C3.16071 45.7299 0 38.1193 0 30.1837ZM30 4.00261C25.0567 4.00287 20.2139 5.3953 16.029 8.01964C11.8441 10.644 8.48731 14.3935 6.34487 18.8368C4.20242 23.28 3.36145 28.2363 3.91874 33.1353C4.47604 38.0342 6.40895 42.6766 9.495 46.5282C12.1575 42.2494 18.0188 37.664 30 37.664C41.9813 37.664 47.8388 42.2457 50.505 46.5282C53.5911 42.6766 55.524 38.0342 56.0813 33.1353C56.6386 28.2363 55.7976 23.28 53.6551 18.8368C51.5127 14.3935 48.1559 10.644 43.971 8.01964C39.7861 5.3953 34.9433 4.00287 30 4.00261Z" fill="white"/>
</svg>
