<svg width="23" height="19" viewBox="0 0 23 19" fill="none" xmlns="http://www.w3.org/2000/svg">
<path d="M11.5 17.8125C17.0574 17.8125 21.5625 14.0909 21.5625 9.5C21.5625 4.90913 17.0574 1.1875 11.5 1.1875C5.94263 1.1875 1.4375 4.90913 1.4375 9.5C1.4375 14.0909 5.94263 17.8125 11.5 17.8125Z" fill="#2196F3"/>
<path d="M10.5417 8.70831H12.4584V13.0625H10.5417V8.70831Z" fill="white"/>
<path d="M11.4999 7.52086C12.1615 7.52086 12.6978 7.0778 12.6978 6.53127C12.6978 5.98474 12.1615 5.54169 11.4999 5.54169C10.8383 5.54169 10.302 5.98474 10.302 6.53127C10.302 7.0778 10.8383 7.52086 11.4999 7.52086Z" fill="white"/>
</svg>
