<svg width="25" height="25" viewBox="0 0 25 25" fill="none" xmlns="http://www.w3.org/2000/svg">
<path d="M19.4252 2.49766C19.3398 1.81079 18.9758 1.17632 18.4029 0.715545C17.83 0.25477 17.0884 2.08812e-05 16.3197 0H11.4588C10.6902 2.08812e-05 9.9485 0.25477 9.3756 0.715545C8.8027 1.17632 8.43876 1.81079 8.35336 2.49766H5.90344C5.07467 2.49766 4.27984 2.7937 3.69381 3.32066C3.10778 3.84761 2.77855 4.56231 2.77855 5.30754V10.1155C3.43484 9.81329 4.13665 9.59873 4.86181 9.47863V5.30754C4.86181 5.05913 4.97155 4.82089 5.1669 4.64524C5.36224 4.46959 5.62718 4.37091 5.90344 4.37091H8.86028C9.42137 5.12396 10.3755 5.61974 11.4588 5.61974H16.3197C17.403 5.61974 18.3572 5.12396 18.9183 4.37091H21.8751C22.1514 4.37091 22.4163 4.46959 22.6117 4.64524C22.807 4.82089 22.9167 5.05913 22.9167 5.30754V22.1668C22.9167 22.4152 22.807 22.6534 22.6117 22.8291C22.4163 23.0047 22.1514 23.1034 21.8751 23.1034H16.4336C16.5876 23.3962 16.6674 23.7161 16.6674 24.04C16.6674 24.3639 16.5876 24.6838 16.4336 24.9766H21.8751C22.2855 24.9766 22.6918 24.904 23.071 24.7627C23.4501 24.6215 23.7946 24.4146 24.0847 24.1536C24.3749 23.8927 24.6051 23.583 24.7621 23.2421C24.9192 22.9011 25 22.5358 25 22.1668V5.30754C25 4.93854 24.9192 4.57315 24.7621 4.23224C24.6051 3.89133 24.3749 3.58158 24.0847 3.32066C23.7946 3.05974 23.4501 2.85276 23.071 2.71155C22.6918 2.57034 22.2855 2.49766 21.8751 2.49766H19.4252ZM19.4377 2.61755L19.4446 2.80987C19.4446 2.74493 19.4419 2.68124 19.4377 2.61755ZM11.4588 1.87325H16.3197C16.596 1.87325 16.8609 1.97193 17.0563 2.14758C17.2516 2.32323 17.3614 2.56146 17.3614 2.80987C17.3614 3.05828 17.2516 3.29651 17.0563 3.47216C16.8609 3.64782 16.596 3.7465 16.3197 3.7465H11.4588C11.1825 3.7465 10.9176 3.64782 10.7223 3.47216C10.5269 3.29651 10.4172 3.05828 10.4172 2.80987C10.4172 2.56146 10.5269 2.32323 10.7223 2.14758C10.9176 1.97193 11.1825 1.87325 11.4588 1.87325ZM11.0422 19.8439C12.0479 18.7636 12.5656 17.3831 12.4928 15.9757C12.4201 14.5684 11.7621 13.237 10.6493 12.2452C9.53645 11.2535 8.04994 10.6738 6.48425 10.6209C4.91856 10.5681 3.3879 11.046 2.19551 11.9599C1.00312 12.8738 0.235991 14.1571 0.0460918 15.5556C-0.143807 16.9541 0.257379 18.3656 1.17017 19.5107C2.08297 20.6558 3.44078 21.4508 4.97461 21.7382C6.50845 22.0257 8.10641 21.7846 9.45193 21.0628L13.5004 24.7019C13.5958 24.7939 13.7108 24.8677 13.8385 24.9189C13.9663 24.9701 14.1042 24.9976 14.2441 24.9999C14.384 25.0021 14.5229 24.9789 14.6526 24.9318C14.7823 24.8847 14.9001 24.8146 14.999 24.7257C15.0979 24.6367 15.1759 24.5308 15.2283 24.4142C15.2807 24.2975 15.3064 24.1726 15.3039 24.0469C15.3015 23.9211 15.2709 23.7971 15.2139 23.6822C15.157 23.5673 15.0749 23.4639 14.9726 23.3781L11.0422 19.8439ZM6.25065 19.9813C5.14562 19.9813 4.08585 19.5866 3.30447 18.884C2.5231 18.1814 2.08413 17.2284 2.08413 16.2348C2.08413 15.2412 2.5231 14.2882 3.30447 13.5856C4.08585 12.883 5.14562 12.4883 6.25065 12.4883C7.35568 12.4883 8.41545 12.883 9.19683 13.5856C9.9782 14.2882 10.4172 15.2412 10.4172 16.2348C10.4172 17.2284 9.9782 18.1814 9.19683 18.884C8.41545 19.5866 7.35568 19.9813 6.25065 19.9813Z" fill="#3DA5D9"/>
</svg>
